<?xml version="1.0" encoding="utf-8"?>
<!-- Generator: Adobe Illustrator 16.0.0, SVG Export Plug-In . SVG Version: 6.00 Build 0)  -->
<!DOCTYPE svg PUBLIC "-//W3C//DTD SVG 1.1//EN" "http://www.w3.org/Graphics/SVG/1.1/DTD/svg11.dtd">
<svg version="1.1" xmlns="http://www.w3.org/2000/svg" xmlns:xlink="http://www.w3.org/1999/xlink" x="0px" y="0px" width="960px"
	 height="317.532px" viewBox="0 0 960 317.532" enable-background="new 0 0 960 317.532" xml:space="preserve">
<g id="Layer_3">
</g>
<g id="Layer_4">
	<g>
		<g>
			<path fill="#29ABE2" d="M230,149.69c24.009-0.366,48.175,4.031,63.569,23.992c11.893,15.423,18.52,34.092,31.333,48.961
				c19.831,23.014,49.702,32.901,78.815,37.689c22.17,3.646,44.354,4.128,66.714,4.02c58.931-0.287,117.862-0.573,176.792-0.86
				c26.988-0.131,53.978-0.263,80.966-0.394c1.934-0.01,1.935-3.01,0-3c-43.422,0.211-86.843,0.422-130.265,0.634
				c-48.626,0.236-97.252,0.473-145.878,0.709c-17.102,0.083-34.523-1.703-51.354-4.649c-17.059-2.987-34.035-7.862-49.204-16.373
				c-20.247-11.36-32.43-29.177-43.381-48.994c-6.54-11.836-13.448-23.554-24.481-31.766c-15.182-11.3-35.311-13.248-53.626-12.969
				C228.067,146.72,228.064,149.72,230,149.69L230,149.69z"/>
		</g>
	</g>
</g>
<g id="Layer_2">
	<g>
		<g>
			<path fill="#ED1C24" d="M229.704,148.16c16.584,2.577,33.481,2.108,48.987-4.838c12.585-5.638,22.553-15.493,30.846-26.29
				c16.237-21.139,26.332-49.679,49.566-64.549c9.11-5.83,19.499-7.837,30.176-7.726c11.331,0.119,22.661,0.237,33.992,0.356
				c23.884,0.25,47.768,0.5,71.652,0.75c1.936,0.021,1.934-2.98,0-3c-24.2-0.253-48.4-0.507-72.6-0.76
				c-11.211-0.117-22.423-0.234-33.634-0.352c-10.789-0.113-21.152,2.152-30.458,7.743c-22.256,13.372-33.056,40.1-47.321,60.59
				c-7.979,11.46-17.515,21.952-29.88,28.731c-15.408,8.448-33.515,9.095-50.528,6.452
				C228.609,144.974,227.797,147.864,229.704,148.16L229.704,148.16z"/>
		</g>
	</g>
</g>
<g id="Layer_1">
	<g>
		<g>
			<path fill="#CCCCCC" d="M255,160.125c0,4.478-3.63,8.108-8.107,8.108h-33.785c-4.478,0-8.107-3.631-8.107-8.108v-33.783
				c0-4.478,3.63-8.108,8.107-8.108h33.785c4.478,0,8.107,3.631,8.107,8.108V160.125z"/>
			<path id="multi-files-4-icon" d="M233.977,130.604h-14.662v27.147h3.785v-23.363h14.661L233.977,130.604z M227.162,123.744H212.5
				v28.851h3.785v-25.066h14.662L227.162,123.744z M238.431,141.354v5.274h5.285v12.311h-13.613v-17.585H238.431 M240.796,137.569
				h-14.478v25.153H247.5v-18.46L240.796,137.569z"/>
		</g>
		<text transform="matrix(1 0 0 1 206.4937 180.1299)" font-family="'Helvetica'" font-size="9">OPEN FILE</text>
	</g>
	<g>
		<g>
			<path fill="#CCCCCC" d="M412,60.125c0,4.478-3.63,8.108-8.107,8.108h-33.785c-4.478,0-8.107-3.631-8.107-8.108V26.342
				c0-4.478,3.63-8.108,8.107-8.108h33.785c4.478,0,8.107,3.631,8.107,8.108V60.125z"/>
			<path id="email-11-icon" d="M397.02,34.06c-0.236,0.788-0.945,3.19-1.142,4.056l-2.362,8.74
				c-0.118,0.433-0.158,0.827-0.158,1.182c0,0.629,0.355,0.984,1.024,0.984c0.748,0,1.692-0.395,2.479-1.023
				c1.93-1.497,3.189-4.41,3.189-7.442c0-3.621-1.693-6.771-4.527-8.542c-1.771-1.064-4.252-1.654-7.047-1.654
				c-8.308,0-14.134,5.512-14.134,13.307c0,7.56,5.235,12.521,13.149,12.521c2.047,0,4.212-0.315,6.023-0.867
				c1.535-0.472,2.52-0.943,4.409-2.086l2.401,3.465c-2.125,1.26-3.07,1.731-4.921,2.283c-2.677,0.827-5.512,1.26-8.347,1.26
				c-5.551,0-9.881-1.574-12.992-4.685c-2.953-2.915-4.566-7.087-4.566-11.653c0-4.883,1.654-9.096,4.803-12.284
				c3.623-3.622,8.387-5.394,14.488-5.394c9.174,0,15.709,5.906,15.709,14.135c0,3.7-1.339,7.086-3.74,9.488
				c-2.047,2.046-4.725,3.228-7.361,3.228c-1.536,0-2.796-0.592-3.387-1.535c-0.196-0.315-0.236-0.513-0.354-1.221
				c-1.495,1.731-3.071,2.479-5.274,2.479c-3.898,0-6.379-2.913-6.379-7.401c0-6.654,4.37-12.165,9.606-12.165
				c2.205,0,3.308,0.551,4.37,2.205l0.394-1.379H397.02L397.02,34.06z M388.91,45.754c0.944-1.851,1.574-4.252,1.574-6.063
				c0-1.613-0.905-2.717-2.283-2.717c-1.496,0-2.874,0.984-3.858,2.835c-0.945,1.771-1.575,4.095-1.575,5.905
				c0,2.086,0.787,3.188,2.283,3.188C386.508,48.902,387.886,47.761,388.91,45.754z"/>
		</g>
		<text transform="matrix(1 0 0 1 365.9985 79.6753)"><tspan x="0" y="0" font-family="'Helvetica'" font-size="9">EXTRACT </tspan><tspan x="7.497" y="10.8" font-family="'Helvetica'" font-size="9">EMAIL</tspan></text>
	</g>
	<g>
		<g>
			<path fill="#CCCCCC" d="M571,276.126c0,4.478-3.63,8.107-8.107,8.107h-33.785c-4.478,0-8.107-3.63-8.107-8.107v-33.785
				c0-4.478,3.63-8.107,8.107-8.107h33.785c4.478,0,8.107,3.63,8.107,8.107V276.126z"/>
			<path id="sort-14-icon" d="M536.674,273.466l8.496-11.324h-5.54v-16.613h-5.913v16.613h-5.539L536.674,273.466z M553.983,245.528
				h3.683l5.512,15.582h-3.529l-1.028-3.203h-5.738l-1.057,3.203h-3.405L553.983,245.528z M553.767,255.222h3.992l-1.969-6.131
				L553.767,255.222z M552.006,271.739l4.999-6.324h-4.874v-1.732h7.412v1.639l-5.062,6.418h5.076v1.727h-7.551V271.739z"/>
		</g>
		<text transform="matrix(1 0 0 1 533.1777 296.4463)" font-family="'Helvetica'" font-size="9">SORT</text>
	</g>
	<g>
		<g>
			<path fill="#CCCCCC" d="M525,60.125c0,4.478-3.63,8.108-8.107,8.108h-33.785c-4.478,0-8.107-3.631-8.107-8.108V26.342
				c0-4.478,3.63-8.108,8.107-8.108h33.785c4.478,0,8.107,3.631,8.107,8.108V60.125z"/>
			<path id="note-19-icon" d="M494.923,46.684h-6.127v-2.32h6.127V46.684z M517.5,31.328l-12.416,12.411l-5.161-5.159l12.416-12.41
				L517.5,31.328z M507.839,44.799c0,1.516,0,2.715,0,3.286c0,5.008-6.184,3.001-6.184,3.001s1.894,6.038-2.776,6.038
				c-2.545,0-3.814,0-13.205,0V30.78h18.236l3.174-3.174H482.5v32.691h16.427c5.409,0,12.086-7.068,12.086-11.939v-6.731
				L507.839,44.799z M498.505,40.142l5.011,5.007l-6.628,1.501L498.505,40.142z"/>
		</g>
		<text transform="matrix(1 0 0 1 483 79.2207)"><tspan x="0" y="0" font-family="'Helvetica'" font-size="9">ADD TO</tspan><tspan x="-7.001" y="10.8" font-family="'Helvetica'" font-size="9">WHITELIST</tspan></text>
	</g>
	<g>
		<g>
			<path fill="#CCCCCC" d="M479,277.126c0,4.478-3.63,8.107-8.107,8.107h-33.785c-4.478,0-8.107-3.63-8.107-8.107v-33.785
				c0-4.478,3.63-8.107,8.107-8.107h33.785c4.478,0,8.107,3.63,8.107,8.107V277.126z"/>
			<path id="gear-10-icon" d="M460.61,258.063v-3.248l-1.753-0.623c-0.67-0.238-1.208-0.75-1.48-1.406l0,0
				c-0.273-0.656-0.254-1.398,0.051-2.041l0.801-1.682l-2.297-2.297l-1.681,0.799c-0.642,0.305-1.386,0.324-2.043,0.053l0,0
				c-0.657-0.273-1.167-0.811-1.405-1.48l-0.624-1.754h-3.247l-0.624,1.754c-0.237,0.67-0.748,1.207-1.404,1.48h-0.001
				c-0.657,0.271-1.4,0.252-2.043-0.053l-1.68-0.799l-2.297,2.297l0.799,1.682c0.306,0.641,0.325,1.385,0.053,2.041c0,0,0,0-0.001,0
				c-0.271,0.656-0.809,1.168-1.479,1.406l-1.755,0.623v3.248l1.755,0.623c0.669,0.238,1.207,0.748,1.479,1.404
				c0.001,0,0.001,0,0.001,0c0.272,0.658,0.253,1.4-0.053,2.043l-0.799,1.682l2.297,2.297l1.68-0.799
				c0.643-0.307,1.387-0.326,2.043-0.053c0.001,0,0.001,0,0.001,0c0.656,0.271,1.167,0.811,1.404,1.479l0.624,1.754h3.247
				l0.621-1.742c0.239-0.676,0.755-1.219,1.416-1.494c0.001,0,0.001,0,0.001,0c0.652-0.271,1.387-0.252,2.023,0.051l1.691,0.805
				l2.297-2.297l-0.801-1.682c-0.305-0.643-0.323-1.385-0.051-2.041c0,0,0,0,0-0.002c0.272-0.656,0.811-1.166,1.48-1.404
				L460.61,258.063z M448.555,260.858c-2.441,0-4.42-1.977-4.42-4.42c0-2.441,1.979-4.42,4.42-4.42c2.442,0,4.422,1.979,4.422,4.42
				C452.977,258.882,450.997,260.858,448.555,260.858z M471.5,267.61v-1.727l-0.932-0.332c-0.357-0.127-0.643-0.398-0.787-0.748l0,0
				c-0.146-0.35-0.135-0.742,0.027-1.084l0.425-0.895l-1.221-1.221l-0.894,0.424c-0.342,0.162-0.736,0.174-1.086,0.027l0,0
				c-0.35-0.145-0.62-0.428-0.747-0.785l-0.331-0.934h-1.727l-0.332,0.934c-0.127,0.355-0.398,0.641-0.746,0.785l0,0
				c-0.351,0.146-0.744,0.135-1.086-0.027l-0.895-0.424l-1.221,1.221l0.426,0.895c0.161,0.342,0.172,0.734,0.027,1.084l0,0
				c-0.146,0.35-0.432,0.621-0.787,0.748l-0.933,0.332v1.727l0.933,0.33c0.355,0.127,0.642,0.398,0.787,0.746l0,0
				c0.145,0.352,0.135,0.744-0.027,1.086l-0.426,0.895l1.221,1.221l0.895-0.426c0.342-0.16,0.735-0.172,1.086-0.027l0,0
				c0.348,0.146,0.619,0.432,0.746,0.787l0.332,0.934h1.727l0.329-0.928c0.128-0.359,0.401-0.646,0.753-0.795h0.001
				c0.346-0.143,0.737-0.133,1.076,0.027l0.898,0.428l1.221-1.221l-0.425-0.895c-0.162-0.342-0.173-0.734-0.027-1.084v-0.002
				c0.145-0.348,0.43-0.619,0.787-0.746L471.5,267.61z M465.092,269.097c-1.298,0-2.35-1.053-2.35-2.352
				c0-1.297,1.052-2.35,2.35-2.35c1.299,0,2.35,1.053,2.35,2.35C467.441,268.044,466.391,269.097,465.092,269.097z M459.037,272.69
				v-0.945l-0.658-0.164c-0.137-0.035-0.245-0.141-0.282-0.277c0,0,0,0,0-0.002c-0.036-0.133,0.004-0.277,0.104-0.373l0.489-0.475
				l-0.473-0.818l-0.649,0.186c-0.138,0.039-0.286,0-0.388-0.1l0,0c-0.098-0.098-0.134-0.238-0.097-0.371l0.189-0.66l-0.82-0.473
				l-0.472,0.488c-0.097,0.102-0.243,0.141-0.378,0.104c-0.002,0-0.002,0-0.003,0c-0.133-0.035-0.238-0.141-0.272-0.275
				l-0.165-0.662h-0.945l-0.165,0.658c-0.034,0.137-0.141,0.244-0.276,0.279c-0.001,0-0.001,0.002-0.002,0.002
				c-0.135,0.037-0.276-0.004-0.372-0.104l-0.476-0.49l-0.819,0.473l0.186,0.65c0.04,0.137,0.002,0.285-0.1,0.387l0,0
				c-0.098,0.098-0.238,0.135-0.371,0.098l-0.659-0.189l-0.473,0.818l0.487,0.473c0.101,0.098,0.142,0.244,0.105,0.379v0.002
				c-0.037,0.133-0.143,0.238-0.277,0.271l-0.662,0.166v0.945l0.658,0.166c0.137,0.033,0.244,0.141,0.281,0.275
				c0,0.002,0.001,0.002,0.001,0.002c0.035,0.133-0.005,0.277-0.104,0.375l-0.489,0.473l0.473,0.82l0.649-0.186
				c0.138-0.039,0.286-0.002,0.388,0.098c0,0.002,0,0.002,0,0.002c0.097,0.096,0.133,0.238,0.097,0.369l-0.189,0.66l0.819,0.473
				l0.472-0.486c0.098-0.102,0.242-0.143,0.378-0.105c0.001,0,0.003,0,0.003,0c0.134,0.037,0.239,0.143,0.271,0.277l0.167,0.662
				h0.945l0.165-0.66c0.034-0.137,0.141-0.244,0.276-0.279c0-0.002,0.001-0.002,0.002-0.002c0.134-0.035,0.276,0.004,0.372,0.104
				l0.475,0.49l0.82-0.473l-0.186-0.648c-0.04-0.139-0.002-0.287,0.1-0.389l0,0c0.098-0.098,0.238-0.133,0.369-0.096l0.661,0.189
				l0.473-0.82l-0.487-0.473c-0.102-0.096-0.142-0.242-0.105-0.379c0,0,0,0,0-0.002c0.037-0.133,0.143-0.238,0.277-0.271
				L459.037,272.69z M454.69,273.923c-0.942,0-1.706-0.762-1.706-1.705c0-0.941,0.764-1.705,1.706-1.705s1.706,0.764,1.706,1.705
				C456.396,273.161,455.633,273.923,454.69,273.923z"/>
		</g>
		<text transform="matrix(1 0 0 1 435.7471 296.6699)"><tspan x="0" y="0" font-family="'Helvetica'" font-size="9">UPDATE</tspan><tspan x="-9.753" y="10.8" font-family="'Helvetica'" font-size="9">MAILINGLIST</tspan></text>
	</g>
	<g>
		<g>
			<g>
				<path fill="#CCCCCC" d="M662,277.124c0,4.479-3.63,8.109-8.107,8.109h-33.785c-4.478,0-8.107-3.631-8.107-8.109v-33.781
					c0-4.479,3.63-8.109,8.107-8.109h33.785c4.478,0,8.107,3.631,8.107,8.109V277.124z"/>
			</g>
			<path id="minus-5-icon" d="M646.563,262.997h-17.955v-5.002h17.955V262.997z M654.916,260.241c0,9.664-7.835,17.5-17.5,17.5
				s-17.5-7.836-17.5-17.5c0-9.666,7.835-17.5,17.5-17.5S654.916,250.575,654.916,260.241z M651.518,260.241
				c0-7.795-6.309-14.102-14.102-14.102c-7.795,0-14.102,6.307-14.102,14.102s6.309,14.102,14.102,14.102
				C645.211,274.343,651.518,268.034,651.518,260.241z"/>
		</g>
		<text transform="matrix(1 0 0 1 617.8359 296.9033)"><tspan x="0" y="0" font-family="'Helvetica'" font-size="9">REMOVE </tspan><tspan x="-8.754" y="10.801" font-family="'Helvetica'" font-size="9">DUPLICATES</tspan></text>
	</g>
	<g>
		<g>
			<path fill="#CCCCCC" d="M754,277.124c0,4.479-3.63,8.109-8.107,8.109h-33.785c-4.478,0-8.107-3.631-8.107-8.109v-33.781
				c0-4.479,3.63-8.109,8.107-8.109h33.785c4.478,0,8.107,3.631,8.107,8.109V277.124z"/>
			<path id="email-8-icon" d="M739.154,256.108c0,0-7.061-0.295-10.965,3.887c1.834-7.986,10.965-9.844,10.965-9.844v-2.455
				l7.346,5.432l-7.346,5.434V256.108z M713.848,258.806l14.342-10.951l3.798,2.898c0.669-0.508,1.738-1.105,2.636-1.557
				l-6.434-4.91L711.5,257.001v16.285l9.561-8.957L713.848,258.806z M735.32,264.376l9.56,8.945V257.22L735.32,264.376z
				 M711.541,277.155h33.277l-16.629-15.557L711.541,277.155z"/>
		</g>
		<text transform="matrix(1 0 0 1 716.4971 296.4229)"><tspan x="0" y="0" font-family="'Helvetica'" font-size="9">SEND</tspan><tspan x="-1.002" y="10.8" font-family="'Helvetica'" font-size="9">EMAIL</tspan></text>
	</g>
</g>
</svg>
